<?xml version="1.0" encoding="utf-8"?>
<!-- Generator: Adobe Illustrator 13.0.0, SVG Export Plug-In . SVG Version: 6.00 Build 14948)  -->
<!DOCTYPE svg PUBLIC "-//W3C//DTD SVG 1.1//EN" "http://www.w3.org/Graphics/SVG/1.1/DTD/svg11.dtd">
<svg version="1.1" id="Layer_1" xmlns="http://www.w3.org/2000/svg" xmlns:xlink="http://www.w3.org/1999/xlink" x="0px" y="0px"
	 width="96px" height="61.043px" viewBox="0 0 96 61.043" enable-background="new 0 0 96 61.043" xml:space="preserve">
<g>
	<g id="Layer_50_10_">
		<path fill="#CDCDCD" d="M0,0v48v8.086v4.957h96v-4.957V48V0H0z M48.001,58.239c-2.05,0-3.715-1.666-3.715-3.717
			s1.665-3.713,3.715-3.713c2.049,0,3.713,1.662,3.713,3.713S50.05,58.239,48.001,58.239z M91.825,48H4.174V4.174h87.651V48z"/>
	</g>
</g>
<g>
	<path fill="#CDCDCD" d="M33.201,20.616c0.179,0.614,0.428,1.206,0.742,1.762l-0.896,1.129c-0.292,0.369-0.259,0.896,0.069,1.228
		l1.542,1.542c0.333,0.333,0.859,0.362,1.229,0.069l1.122-0.888c0.577,0.333,1.191,0.592,1.831,0.775l0.168,1.444
		c0.055,0.468,0.449,0.818,0.917,0.818h2.182c0.468,0,0.863-0.351,0.918-0.818l0.161-1.393c0.687-0.179,1.345-0.446,1.963-0.793
		l1.085,0.859c0.369,0.292,0.896,0.259,1.228-0.07l1.542-1.542c0.333-0.333,0.362-0.859,0.07-1.228L48.23,22.44
		c0.351-0.607,0.625-1.253,0.808-1.93l1.301-0.15c0.469-0.055,0.819-0.45,0.819-0.917V17.26c0-0.468-0.351-0.862-0.819-0.917
		l-1.282-0.149c-0.176-0.669-0.438-1.309-0.774-1.908l0.789-0.998c0.293-0.369,0.26-0.896-0.069-1.228l-1.539-1.539
		c-0.333-0.333-0.859-0.362-1.228-0.069l-0.969,0.767c-0.628-0.369-1.301-0.65-2.006-0.84l-0.146-1.253
		c-0.055-0.468-0.449-0.819-0.917-0.819h-2.182c-0.468,0-0.863,0.351-0.917,0.819l-0.146,1.253c-0.724,0.193-1.415,0.486-2.058,0.87
		l-1.005-0.796c-0.369-0.293-0.896-0.26-1.229,0.069l-1.542,1.542c-0.333,0.333-0.362,0.859-0.069,1.228l0.84,1.064
		c-0.336,0.606-0.592,1.253-0.76,1.926l-1.345,0.153c-0.468,0.055-0.819,0.45-0.819,0.917v2.182c0,0.468,0.351,0.863,0.819,0.918
		L33.201,20.616z M41.107,14.713c1.988,0,3.607,1.619,3.607,3.607c0,1.989-1.619,3.608-3.607,3.608
		c-1.989,0-3.608-1.619-3.608-3.608C37.499,16.332,39.118,14.713,41.107,14.713z"/>
	<path fill="#CDCDCD" d="M62.679,21.153l-1.15-0.972c-0.355-0.3-0.877-0.285-1.214,0.033l-0.636,0.596
		c-0.537-0.26-1.107-0.442-1.696-0.548l-0.179-0.877c-0.092-0.454-0.512-0.768-0.973-0.731l-1.502,0.127
		c-0.461,0.041-0.822,0.417-0.838,0.881l-0.028,0.892c-0.577,0.208-1.122,0.494-1.62,0.852l-0.76-0.504
		c-0.387-0.256-0.902-0.183-1.203,0.172l-0.972,1.159c-0.3,0.354-0.285,0.877,0.032,1.213l0.666,0.709
		c-0.23,0.52-0.395,1.064-0.49,1.623l-0.95,0.194c-0.453,0.091-0.768,0.512-0.731,0.972l0.129,1.502
		c0.039,0.46,0.416,0.822,0.881,0.837l1.027,0.033c0.186,0.49,0.431,0.955,0.727,1.389l-0.574,0.867
		c-0.256,0.387-0.182,0.902,0.172,1.202l1.152,0.972c0.354,0.301,0.877,0.285,1.213-0.032l0.753-0.706
		c0.493,0.23,1.013,0.402,1.546,0.505l0.209,1.03c0.092,0.455,0.512,0.768,0.973,0.732l1.502-0.129
		c0.461-0.039,0.822-0.416,0.837-0.881l0.032-1.009c0.549-0.194,1.068-0.457,1.547-0.782l0.83,0.549
		c0.387,0.256,0.902,0.183,1.202-0.172l0.972-1.152c0.301-0.354,0.285-0.877-0.032-1.213l-0.669-0.709
		c0.244-0.52,0.424-1.067,0.525-1.63l0.914-0.187c0.453-0.091,0.768-0.512,0.731-0.972l-0.128-1.502
		c-0.04-0.46-0.416-0.822-0.881-0.837l-0.918-0.029c-0.189-0.534-0.445-1.038-0.764-1.506l0.501-0.753
		C63.106,21.972,63.034,21.453,62.679,21.153z M57.018,29.838c-1.622,0.139-3.056-1.071-3.19-2.694
		c-0.14-1.623,1.07-3.056,2.693-3.191c1.623-0.139,3.056,1.071,3.191,2.694C59.851,28.27,58.641,29.703,57.018,29.838z"/>
	<path fill="#CDCDCD" d="M38.457,33.88c-0.46,0.048-0.815,0.435-0.819,0.899l-0.011,0.926c-0.007,0.463,0.336,0.857,0.797,0.916
		l0.68,0.088c0.113,0.414,0.274,0.809,0.482,1.182l-0.438,0.541c-0.292,0.361-0.271,0.881,0.055,1.213l0.647,0.662
		c0.325,0.332,0.845,0.369,1.214,0.084l0.544-0.422c0.384,0.229,0.79,0.406,1.213,0.531l0.073,0.701
		c0.047,0.461,0.435,0.816,0.899,0.818l0.925,0.012c0.464,0.008,0.859-0.336,0.917-0.797l0.084-0.666
		c0.461-0.113,0.899-0.283,1.316-0.512l0.513,0.414c0.361,0.293,0.881,0.27,1.213-0.055l0.662-0.646
		c0.332-0.326,0.368-0.846,0.084-1.215l-0.392-0.508c0.241-0.402,0.427-0.83,0.556-1.279l0.606-0.063
		c0.461-0.047,0.815-0.434,0.819-0.898l0.01-0.925c0.008-0.464-0.336-0.859-0.797-0.917l-0.592-0.078
		c-0.113-0.445-0.281-0.877-0.5-1.279l0.369-0.453c0.293-0.361,0.271-0.88-0.055-1.213l-0.646-0.662
		c-0.326-0.333-0.846-0.369-1.215-0.084l-0.442,0.34c-0.417-0.252-0.863-0.446-1.331-0.578l-0.059-0.574
		c-0.047-0.461-0.435-0.815-0.899-0.819l-0.925-0.011c-0.464-0.007-0.859,0.336-0.917,0.797l-0.073,0.57
		c-0.483,0.125-0.947,0.314-1.378,0.563l-0.457-0.373c-0.362-0.292-0.881-0.27-1.214,0.055l-0.665,0.65
		c-0.333,0.325-0.369,0.844-0.084,1.213l0.391,0.505c-0.226,0.402-0.405,0.83-0.522,1.279L38.457,33.88z M44.425,32.835
		c1.327,0.015,2.391,1.107,2.376,2.435c-0.015,1.326-1.107,2.391-2.434,2.375c-1.327-0.014-2.391-1.107-2.376-2.434
		C42.006,33.884,43.099,32.821,44.425,32.835z"/>
</g>
</svg>
